<svg width="750" height="46" viewBox="0 0 750 46" xmlns="http://www.w3.org/2000/svg"><g fill="#fff" stroke="#000"><path d="M214.416 10.9h.624V7.348h2.064c1.488 0 2.4-.924 2.4-2.196 0-1.248-.912-2.172-2.4-2.172h-2.688zm.624-4.116v-3.24h2.04c1.14 0 1.776.66 1.776 1.62 0 .96-.636 1.62-1.776 1.62zM220.428 7.996c-.036 1.644 1.356 3.06 2.988 3.024 1.644.036 3.048-1.38 3.012-3.024a3.004 3.004 0 00-3-3.012c-1.644-.036-3.036 1.344-3 3.012zm5.376.012c0 1.368-1.056 2.448-2.388 2.448-1.332 0-2.364-1.08-2.364-2.448 0-1.392 1.032-2.46 2.376-2.46 1.32 0 2.376 1.068 2.376 2.46zM232.992 1.9v4.332c-.444-.768-1.344-1.248-2.34-1.248-1.656 0-2.88 1.332-2.88 3.024 0 1.668 1.26 3.012 2.88 3.012 1.008 0 1.932-.492 2.364-1.296V10.9h.576v-9zm0 6.108c0 1.656-1.08 2.448-2.28 2.448-1.332 0-2.316-1.08-2.316-2.46 0-1.392.984-2.448 2.316-2.448 1.2 0 2.28.792 2.28 2.46zM240.852 8.14c.036-.132.048-.324.048-.576 0-1.548-1.164-2.58-2.592-2.58-1.596-.036-2.964 1.38-2.928 3.024-.036 1.644 1.356 3.048 3 3.012.924 0 1.752-.408 2.328-1.08l-.384-.396c-.516.612-1.164.912-1.932.912-1.308 0-2.316-.96-2.388-2.316zm-4.824-.54c.084-.6.336-1.092.756-1.476.42-.396.912-.588 1.5-.588 1.116 0 2.04.804 1.992 2.064zM250.944 7.24c0-1.356-.768-2.256-2.064-2.256-.924 0-1.62.456-2.004 1.128-.3-.708-.924-1.128-1.824-1.128-.768 0-1.404.312-1.788.876v-.756h-.576V10.9h.6V7.288c0-1.008.684-1.74 1.68-1.74.96 0 1.548.696 1.548 1.74V10.9h.6V7.192c0-.9.708-1.644 1.68-1.644.96 0 1.536.696 1.536 1.74V10.9h.612V7.24zM252.636 7.996c-.036 1.644 1.356 3.06 2.988 3.024 1.644.036 3.048-1.38 3.012-3.024a3.004 3.004 0 00-3-3.012c-1.644-.036-3.036 1.344-3 3.012zm5.376.012c0 1.368-1.056 2.448-2.388 2.448-1.332 0-2.364-1.08-2.364-2.448 0-1.392 1.032-2.46 2.376-2.46 1.32 0 2.376 1.068 2.376 2.46zM259.86 9.82c.492.72 1.26 1.2 2.22 1.2.54 0 .996-.144 1.368-.42.372-.276.564-.672.564-1.188 0-.804-.528-1.236-1.5-1.668l-.54-.24c-.78-.336-1.092-.552-1.092-1.044 0-.588.504-.912 1.176-.912.564 0 1.068.252 1.512.744l.396-.384a2.29 2.29 0 00-1.872-.924c-.516 0-.948.132-1.308.408-.36.276-.54.636-.54 1.104 0 .756.516 1.152 1.428 1.548l.528.228c.816.372 1.128.528 1.188 1.164 0 .66-.564 1.02-1.296 1.02-.732 0-1.284-.36-1.812-1.032l-.42.396zM272.52 8.704c0 1.404.996 2.316 2.28 2.316 1.272 0 2.268-.912 2.268-2.316v-3.6h-.6v3.624c0 1.056-.72 1.728-1.668 1.728-.96 0-1.68-.672-1.68-1.728V5.104h-.6v3.6zM278.652 9.82c.492.72 1.26 1.2 2.22 1.2.54 0 .996-.144 1.368-.42.372-.276.564-.672.564-1.188 0-.804-.528-1.236-1.5-1.668l-.54-.24c-.78-.336-1.092-.552-1.092-1.044 0-.588.504-.912 1.176-.912.564 0 1.068.252 1.512.744l.396-.384a2.29 2.29 0 00-1.872-.924c-.516 0-.948.132-1.308.408-.36.276-.54.636-.54 1.104 0 .756.516 1.152 1.428 1.548l.528.228c.816.372 1.128.528 1.188 1.164 0 .66-.564 1.02-1.296 1.02-.732 0-1.284-.36-1.812-1.032l-.42.396zM288.792 7.264c0-1.476-.864-2.28-2.172-2.28-.924 0-1.656.396-2.22 1.2l.42.336c.492-.636 1.032-.972 1.764-.972.972 0 1.596.588 1.596 1.692v.66h-2.016c-1.212 0-2.016.6-2.016 1.548 0 .492.192.888.576 1.164.384.276.852.408 1.416.408.912 0 1.656-.372 2.076-1.032v.912h.576zm-.612 1.476c0 .996-.912 1.752-1.98 1.752-.78 0-1.428-.372-1.428-1.08 0-.636.504-.996 1.452-.996h1.956zM293.796 5.104c-.06 0-.216-.036-.372-.036-.804 0-1.5.348-1.92 1.02v-.984h-.576V10.9h.6V7.492c0-1.164.972-1.86 1.968-1.86h.3v-.528zM298.044 7.996c-.036 1.644 1.356 3.06 2.988 3.024 1.644.036 3.048-1.38 3.012-3.024a3.004 3.004 0 00-3-3.012c-1.644-.036-3.036 1.344-3 3.012zm5.376.012c0 1.368-1.056 2.448-2.388 2.448-1.332 0-2.364-1.08-2.364-2.448 0-1.392 1.032-2.46 2.376-2.46 1.32 0 2.376 1.068 2.376 2.46zM305.268 9.82c.492.72 1.26 1.2 2.22 1.2.54 0 .996-.144 1.368-.42.372-.276.564-.672.564-1.188 0-.804-.528-1.236-1.5-1.668l-.54-.24c-.78-.336-1.092-.552-1.092-1.044 0-.588.504-.912 1.176-.912.564 0 1.068.252 1.512.744l.396-.384a2.29 2.29 0 00-1.872-.924c-.516 0-.948.132-1.308.408-.36.276-.54.636-.54 1.104 0 .756.516 1.152 1.428 1.548l.528.228c.816.372 1.128.528 1.188 1.164 0 .66-.564 1.02-1.296 1.02-.732 0-1.284-.36-1.812-1.032l-.42.396zM318.072 10.9h.624V2.98h-.624zM325.464 7.24c0-1.344-.792-2.256-2.124-2.256-.804 0-1.452.324-1.848.9v-.78h-.576V10.9h.6V7.276c0-.492.156-.912.48-1.236.324-.324.744-.492 1.248-.492.996 0 1.62.708 1.62 1.728V10.9h.6V7.24zM330.516 10.372c-.3.06-.576.096-.804.096-.78 0-1.26-.336-1.26-1.212v-3.6h1.872v-.552h-1.872V3.46h-.612v1.644h-1.008v.552h1.008V9.28c0 1.2.684 1.74 1.776 1.74.3 0 .6-.036.9-.12v-.528zM336.876 8.14c.036-.132.048-.324.048-.576 0-1.548-1.164-2.58-2.592-2.58-1.596-.036-2.964 1.38-2.928 3.024-.036 1.644 1.356 3.048 3 3.012.924 0 1.752-.408 2.328-1.08l-.384-.396c-.516.612-1.164.912-1.932.912-1.308 0-2.316-.96-2.388-2.316zm-4.824-.54c.084-.6.336-1.092.756-1.476.42-.396.912-.588 1.5-.588 1.116 0 2.04.804 1.992 2.064zM341.58 5.104c-.06 0-.216-.036-.372-.036-.804 0-1.5.348-1.92 1.02v-.984h-.576V10.9h.6V7.492c0-1.164.972-1.86 1.968-1.86h.3v-.528zM346.908 7.264c0-1.476-.864-2.28-2.172-2.28-.924 0-1.656.396-2.22 1.2l.42.336c.492-.636 1.032-.972 1.764-.972.972 0 1.596.588 1.596 1.692v.66h-2.016c-1.212 0-2.016.6-2.016 1.548 0 .492.192.888.576 1.164.384.276.852.408 1.416.408.912 0 1.656-.372 2.076-1.032v.912h.576zm-.612 1.476c0 .996-.912 1.752-1.98 1.752-.78 0-1.428-.372-1.428-1.08 0-.636.504-.996 1.452-.996h1.956zM348.6 7.996c-.036 1.644 1.356 3.06 2.988 3.024.972 0 1.812-.456 2.352-1.188l-.432-.348c-.504.648-1.14.972-1.92.972-1.332 0-2.364-1.08-2.364-2.46 0-1.356 1.032-2.448 2.376-2.448.78 0 1.416.324 1.908.972l.432-.348a2.865 2.865 0 00-2.34-1.188c-1.644-.036-3.036 1.368-3 3.012zM358.572 10.372c-.3.06-.576.096-.804.096-.78 0-1.26-.336-1.26-1.212v-3.6h1.872v-.552h-1.872V3.46h-.612v1.644h-1.008v.552h1.008V9.28c0 1.2.684 1.74 1.776 1.74.3 0 .6-.036.9-.12v-.528zM360.024 10.9h.6V5.104h-.6zm-.228-8.028c0 .288.228.528.528.528.288 0 .528-.24.528-.528a.533.533 0 00-.528-.528c-.3 0-.528.24-.528.528zM367.032 5.104l-2.124 4.884-2.136-4.884h-.648l2.664 5.916h.252l2.64-5.916zM373.968 8.14c.036-.132.048-.324.048-.576 0-1.548-1.164-2.58-2.592-2.58-1.596-.036-2.964 1.38-2.928 3.024-.036 1.644 1.356 3.048 3 3.012.924 0 1.752-.408 2.328-1.08l-.384-.396c-.516.612-1.164.912-1.932.912-1.308 0-2.316-.96-2.388-2.316zm-4.824-.54c.084-.6.336-1.092.756-1.476.42-.396.912-.588 1.5-.588 1.116 0 2.04.804 1.992 2.064zM384.288 10.9h.66l-3.384-8.04h-.252l-3.396 8.04h.648l.78-1.884h4.164zm-2.856-6.924l1.836 4.476h-3.684zM391.152 1.9v4.332c-.444-.768-1.344-1.248-2.34-1.248-1.656 0-2.88 1.332-2.88 3.024 0 1.668 1.26 3.012 2.88 3.012 1.008 0 1.932-.492 2.364-1.296V10.9h.576v-9zm0 6.108c0 1.656-1.08 2.448-2.28 2.448-1.332 0-2.316-1.08-2.316-2.46 0-1.392.984-2.448 2.316-2.448 1.2 0 2.28.792 2.28 2.46zM393.42 9.82c.492.72 1.26 1.2 2.22 1.2.54 0 .996-.144 1.368-.42.372-.276.564-.672.564-1.188 0-.804-.528-1.236-1.5-1.668l-.54-.24c-.78-.336-1.092-.552-1.092-1.044 0-.588.504-.912 1.176-.912.564 0 1.068.252 1.512.744l.396-.384a2.29 2.29 0 00-1.872-.924c-.516 0-.948.132-1.308.408-.36.276-.54.636-.54 1.104 0 .756.516 1.152 1.428 1.548l.528.228c.816.372 1.128.528 1.188 1.164 0 .66-.564 1.02-1.296 1.02-.732 0-1.284-.36-1.812-1.032l-.42.396zM402.36 7.996c-.036 1.644 1.356 3.06 2.988 3.024.972 0 1.812-.456 2.352-1.188l-.432-.348c-.504.648-1.14.972-1.92.972-1.332 0-2.364-1.08-2.364-2.46 0-1.356 1.032-2.448 2.376-2.448.78 0 1.416.324 1.908.972l.432-.348a2.865 2.865 0 00-2.34-1.188c-1.644-.036-3.036 1.368-3 3.012zM408.864 7.996c-.036 1.644 1.356 3.06 2.988 3.024 1.644.036 3.048-1.38 3.012-3.024a3.004 3.004 0 00-3-3.012c-1.644-.036-3.036 1.344-3 3.012zm5.376.012c0 1.368-1.056 2.448-2.388 2.448-1.332 0-2.364-1.08-2.364-2.448 0-1.392 1.032-2.46 2.376-2.46 1.32 0 2.376 1.068 2.376 2.46zM424.908 7.24c0-1.356-.768-2.256-2.064-2.256-.924 0-1.62.456-2.004 1.128-.3-.708-.924-1.128-1.824-1.128-.768 0-1.404.312-1.788.876v-.756h-.576V10.9h.6V7.288c0-1.008.684-1.74 1.68-1.74.96 0 1.548.696 1.548 1.74V10.9h.6V7.192c0-.9.708-1.644 1.68-1.644.96 0 1.536.696 1.536 1.74V10.9h.612V7.24zM426.6 7.996c-.036 1.644 1.356 3.06 2.988 3.024 1.644.036 3.048-1.38 3.012-3.024a3.004 3.004 0 00-3-3.012c-1.644-.036-3.036 1.344-3 3.012zm5.376.012c0 1.368-1.056 2.448-2.388 2.448-1.332 0-2.364-1.08-2.364-2.448 0-1.392 1.032-2.46 2.376-2.46 1.32 0 2.376 1.068 2.376 2.46zM437.664 8.704c0 1.404.996 2.316 2.28 2.316 1.272 0 2.268-.912 2.268-2.316v-3.6h-.6v3.624c0 1.056-.72 1.728-1.668 1.728-.96 0-1.68-.672-1.68-1.728V5.104h-.6v3.6zM452.616 7.24c0-1.356-.768-2.256-2.064-2.256-.924 0-1.62.456-2.004 1.128-.3-.708-.924-1.128-1.824-1.128-.768 0-1.404.312-1.788.876v-.756h-.576V10.9h.6V7.288c0-1.008.684-1.74 1.68-1.74.96 0 1.548.696 1.548 1.74V10.9h.6V7.192c0-.9.708-1.644 1.68-1.644.96 0 1.536.696 1.536 1.74V10.9h.612V7.24zM458.868 7.264c0-1.476-.864-2.28-2.172-2.28-.924 0-1.656.396-2.22 1.2l.42.336c.492-.636 1.032-.972 1.764-.972.972 0 1.596.588 1.596 1.692v.66h-2.016c-1.212 0-2.016.6-2.016 1.548 0 .492.192.888.576 1.164.384.276.852.408 1.416.408.912 0 1.656-.372 2.076-1.032v.912h.576zm-.612 1.476c0 .996-.912 1.752-1.98 1.752-.78 0-1.428-.372-1.428-1.08 0-.636.504-.996 1.452-.996h1.956zM468.18 5.104l-2.124 4.884-2.136-4.884h-.648l2.664 5.916h.252l2.64-5.916zM470.328 10.9h.6V5.104h-.6zm-.228-8.028c0 .288.228.528.528.528.288 0 .528-.24.528-.528a.533.533 0 00-.528-.528c-.3 0-.528.24-.528.528zM476.064 10.372c-.3.06-.576.096-.804.096-.78 0-1.26-.336-1.26-1.212v-3.6h1.872v-.552H474V3.46h-.612v1.644h-1.008v.552h1.008V9.28c0 1.2.684 1.74 1.776 1.74.3 0 .6-.036.9-.12v-.528zM480.384 5.104c-.06 0-.216-.036-.372-.036-.804 0-1.5.348-1.92 1.02v-.984h-.576V10.9h.6V7.492c0-1.164.972-1.86 1.968-1.86h.3v-.528zM481.716 10.9h.6V5.104h-.6zm-.228-8.028c0 .288.228.528.528.528.288 0 .528-.24.528-.528a.533.533 0 00-.528-.528c-.3 0-.528.24-.528.528zM489.096 7.24c0-1.344-.792-2.256-2.124-2.256-.804 0-1.452.324-1.848.9v-.78h-.576V10.9h.6V7.276c0-.492.156-.912.48-1.236.324-.324.744-.492 1.248-.492.996 0 1.62.708 1.62 1.728V10.9h.6V7.24zM496.272 8.14c.036-.132.048-.324.048-.576 0-1.548-1.164-2.58-2.592-2.58-1.596-.036-2.964 1.38-2.928 3.024-.036 1.644 1.356 3.048 3 3.012.924 0 1.752-.408 2.328-1.08l-.384-.396c-.516.612-1.164.912-1.932.912-1.308 0-2.316-.96-2.388-2.316zm-4.824-.54c.084-.6.336-1.092.756-1.476.42-.396.912-.588 1.5-.588 1.116 0 2.04.804 1.992 2.064zM505.284 5.104l-2.124 4.884-2.136-4.884h-.648l2.664 5.916h.252l2.64-5.916zM507.432 10.9h.6V5.104h-.6zm-.228-8.028c0 .288.228.528.528.528.288 0 .528-.24.528-.528a.533.533 0 00-.528-.528c-.3 0-.528.24-.528.528zM513.132 5.104c-.06 0-.216-.036-.372-.036-.804 0-1.5.348-1.92 1.02v-.984h-.576V10.9h.6V7.492c0-1.164.972-1.86 1.968-1.86h.3v-.528zM517.368 10.372c-.3.06-.576.096-.804.096-.78 0-1.26-.336-1.26-1.212v-3.6h1.872v-.552h-1.872V3.46h-.612v1.644h-1.008v.552h1.008V9.28c0 1.2.684 1.74 1.776 1.74.3 0 .6-.036.9-.12v-.528zM518.736 8.704c0 1.404.996 2.316 2.28 2.316 1.272 0 2.268-.912 2.268-2.316v-3.6h-.6v3.624c0 1.056-.72 1.728-1.668 1.728-.96 0-1.68-.672-1.68-1.728V5.104h-.6v3.6zM529.548 7.264c0-1.476-.864-2.28-2.172-2.28-.924 0-1.656.396-2.22 1.2l.42.336c.492-.636 1.032-.972 1.764-.972.972 0 1.596.588 1.596 1.692v.66h-2.016c-1.212 0-2.016.6-2.016 1.548 0 .492.192.888.576 1.164.384.276.852.408 1.416.408.912 0 1.656-.372 2.076-1.032v.912h.576zm-.612 1.476c0 .996-.912 1.752-1.98 1.752-.78 0-1.428-.372-1.428-1.08 0-.636.504-.996 1.452-.996h1.956zM531.684 10.9h.6v-9h-.6z" stroke-width=".012"/></g><g fill="#fff" stroke="#000"><path d="M214.488 22.396c0-1.668-1.26-3.012-2.88-3.012-1.008 0-1.932.504-2.364 1.284v-1.164h-.576v7.956h.6v-3.276c.444.768 1.368 1.236 2.34 1.236 1.62 0 2.88-1.332 2.88-3.024zm-.624.012c0 1.392-.984 2.448-2.316 2.448-1.2 0-2.28-.792-2.28-2.46 0-1.656 1.08-2.448 2.28-2.448 1.332 0 2.316 1.08 2.316 2.46zM220.392 21.664c0-1.476-.864-2.28-2.172-2.28-.924 0-1.656.396-2.22 1.2l.42.336c.492-.636 1.032-.972 1.764-.972.972 0 1.596.588 1.596 1.692v.66h-2.016c-1.212 0-2.016.6-2.016 1.548 0 .492.192.888.576 1.164.384.276.852.408 1.416.408.912 0 1.656-.372 2.076-1.032v.912h.576zm-.612 1.476c0 .996-.912 1.752-1.98 1.752-.78 0-1.428-.372-1.428-1.08 0-.636.504-.996 1.452-.996h1.956zM225.396 19.504c-.06 0-.216-.036-.372-.036-.804 0-1.5.348-1.92 1.02v-.984h-.576V25.3h.6v-3.408c0-1.164.972-1.86 1.968-1.86h.3v-.528zM230.724 21.664c0-1.476-.864-2.28-2.172-2.28-.924 0-1.656.396-2.22 1.2l.42.336c.492-.636 1.032-.972 1.764-.972.972 0 1.596.588 1.596 1.692v.66h-2.016c-1.212 0-2.016.6-2.016 1.548 0 .492.192.888.576 1.164.384.276.852.408 1.416.408.912 0 1.656-.372 2.076-1.032v.912h.576zm-.612 1.476c0 .996-.912 1.752-1.98 1.752-.78 0-1.428-.372-1.428-1.08 0-.636.504-.996 1.452-.996h1.956zM244.476 21.64c0-1.356-.768-2.256-2.064-2.256-.924 0-1.62.456-2.004 1.128-.3-.708-.924-1.128-1.824-1.128-.768 0-1.404.312-1.788.876v-.756h-.576V25.3h.6v-3.612c0-1.008.684-1.74 1.68-1.74.96 0 1.548.696 1.548 1.74V25.3h.6v-3.708c0-.9.708-1.644 1.68-1.644.96 0 1.536.696 1.536 1.74V25.3h.612v-3.66zM246.168 22.396c-.036 1.644 1.356 3.06 2.988 3.024 1.644.036 3.048-1.38 3.012-3.024a3.004 3.004 0 00-3-3.012c-1.644-.036-3.036 1.344-3 3.012zm5.376.012c0 1.368-1.056 2.448-2.388 2.448-1.332 0-2.364-1.08-2.364-2.448 0-1.392 1.032-2.46 2.376-2.46 1.32 0 2.376 1.068 2.376 2.46zM253.392 24.22c.492.72 1.26 1.2 2.22 1.2.54 0 .996-.144 1.368-.42.372-.276.564-.672.564-1.188 0-.804-.528-1.236-1.5-1.668l-.54-.24c-.78-.336-1.092-.552-1.092-1.044 0-.588.504-.912 1.176-.912.564 0 1.068.252 1.512.744l.396-.384a2.29 2.29 0 00-1.872-.924c-.516 0-.948.132-1.308.408-.36.276-.54.636-.54 1.104 0 .756.516 1.152 1.428 1.548l.528.228c.816.372 1.128.528 1.188 1.164 0 .66-.564 1.02-1.296 1.02-.732 0-1.284-.36-1.812-1.032l-.42.396zM262.32 24.772c-.3.06-.576.096-.804.096-.78 0-1.26-.336-1.26-1.212v-3.6h1.872v-.552h-1.872V17.86h-.612v1.644h-1.008v.552h1.008v3.624c0 1.2.684 1.74 1.776 1.74.3 0 .6-.036.9-.12v-.528zM266.64 19.504c-.06 0-.216-.036-.372-.036-.804 0-1.5.348-1.92 1.02v-.984h-.576V25.3h.6v-3.408c0-1.164.972-1.86 1.968-1.86h.3v-.528zM271.968 21.664c0-1.476-.864-2.28-2.172-2.28-.924 0-1.656.396-2.22 1.2l.42.336c.492-.636 1.032-.972 1.764-.972.972 0 1.596.588 1.596 1.692v.66h-2.016c-1.212 0-2.016.6-2.016 1.548 0 .492.192.888.576 1.164.384.276.852.408 1.416.408.912 0 1.656-.372 2.076-1.032v.912h.576zm-.612 1.476c0 .996-.912 1.752-1.98 1.752-.78 0-1.428-.372-1.428-1.08 0-.636.504-.996 1.452-.996h1.956zM276.972 19.504c-.06 0-.216-.036-.372-.036-.804 0-1.5.348-1.92 1.02v-.984h-.576V25.3h.6v-3.408c0-1.164.972-1.86 1.968-1.86h.3v-.528zM287.484 22.396c0-1.668-1.26-3.012-2.88-3.012-1.008 0-1.932.504-2.364 1.284v-1.164h-.576v7.956h.6v-3.276c.444.768 1.368 1.236 2.34 1.236 1.62 0 2.88-1.332 2.88-3.024zm-.624.012c0 1.392-.984 2.448-2.316 2.448-1.2 0-2.28-.792-2.28-2.46 0-1.656 1.08-2.448 2.28-2.448 1.332 0 2.316 1.08 2.316 2.46zM292.14 19.504c-.06 0-.216-.036-.372-.036-.804 0-1.5.348-1.92 1.02v-.984h-.576V25.3h.6v-3.408c0-1.164.972-1.86 1.968-1.86h.3v-.528zM292.908 22.396c-.036 1.644 1.356 3.06 2.988 3.024 1.644.036 3.048-1.38 3.012-3.024a3.004 3.004 0 00-3-3.012c-1.644-.036-3.036 1.344-3 3.012zm5.376.012c0 1.368-1.056 2.448-2.388 2.448-1.332 0-2.364-1.08-2.364-2.448 0-1.392 1.032-2.46 2.376-2.46 1.32 0 2.376 1.068 2.376 2.46zM305.472 16.3v4.332c-.444-.768-1.344-1.248-2.34-1.248-1.656 0-2.88 1.332-2.88 3.024 0 1.668 1.26 3.012 2.88 3.012 1.008 0 1.932-.492 2.364-1.296V25.3h.576v-9zm0 6.108c0 1.656-1.08 2.448-2.28 2.448-1.332 0-2.316-1.08-2.316-2.46 0-1.392.984-2.448 2.316-2.448 1.2 0 2.28.792 2.28 2.46zM308.22 23.104c0 1.404.996 2.316 2.28 2.316 1.272 0 2.268-.912 2.268-2.316v-3.6h-.6v3.624c0 1.056-.72 1.728-1.668 1.728-.96 0-1.68-.672-1.68-1.728v-3.624h-.6v3.6zM317.82 24.772c-.3.06-.576.096-.804.096-.78 0-1.26-.336-1.26-1.212v-3.6h1.872v-.552h-1.872V17.86h-.612v1.644h-1.008v.552h1.008v3.624c0 1.2.684 1.74 1.776 1.74.3 0 .6-.036.9-.12v-.528zM318.708 22.396c-.036 1.644 1.356 3.06 2.988 3.024 1.644.036 3.048-1.38 3.012-3.024a3.004 3.004 0 00-3-3.012c-1.644-.036-3.036 1.344-3 3.012zm5.376.012c0 1.368-1.056 2.448-2.388 2.448-1.332 0-2.364-1.08-2.364-2.448 0-1.392 1.032-2.46 2.376-2.46 1.32 0 2.376 1.068 2.376 2.46zM325.932 24.22c.492.72 1.26 1.2 2.22 1.2.54 0 .996-.144 1.368-.42.372-.276.564-.672.564-1.188 0-.804-.528-1.236-1.5-1.668l-.54-.24c-.78-.336-1.092-.552-1.092-1.044 0-.588.504-.912 1.176-.912.564 0 1.068.252 1.512.744l.396-.384a2.29 2.29 0 00-1.872-.924c-.516 0-.948.132-1.308.408-.36.276-.54.636-.54 1.104 0 .756.516 1.152 1.428 1.548l.528.228c.816.372 1.128.528 1.188 1.164 0 .66-.564 1.02-1.296 1.02-.732 0-1.284-.36-1.812-1.032l-.42.396zM332.04 27.46h.516l.432-3.06h-.744zM344.496 22.396c0-1.668-1.26-3.012-2.88-3.012-1.008 0-1.932.504-2.364 1.284v-1.164h-.576v7.956h.6v-3.276c.444.768 1.368 1.236 2.34 1.236 1.62 0 2.88-1.332 2.88-3.024zm-.624.012c0 1.392-.984 2.448-2.316 2.448-1.2 0-2.28-.792-2.28-2.46 0-1.656 1.08-2.448 2.28-2.448 1.332 0 2.316 1.08 2.316 2.46zM349.152 19.504c-.06 0-.216-.036-.372-.036-.804 0-1.5.348-1.92 1.02v-.984h-.576V25.3h.6v-3.408c0-1.164.972-1.86 1.968-1.86h.3v-.528zM355.392 22.54c.036-.132.048-.324.048-.576 0-1.548-1.164-2.58-2.592-2.58-1.596-.036-2.964 1.38-2.928 3.024-.036 1.644 1.356 3.048 3 3.012.924 0 1.752-.408 2.328-1.08l-.384-.396c-.516.612-1.164.912-1.932.912-1.308 0-2.316-.96-2.388-2.316zm-4.824-.54c.084-.6.336-1.092.756-1.476.42-.396.912-.588 1.5-.588 1.116 0 2.04.804 1.992 2.064zM356.784 22.396c-.036 1.644 1.356 3.06 2.988 3.024.972 0 1.812-.456 2.352-1.188l-.432-.348c-.504.648-1.14.972-1.92.972-1.332 0-2.364-1.08-2.364-2.46 0-1.356 1.032-2.448 2.376-2.448.78 0 1.416.324 1.908.972l.432-.348a2.865 2.865 0 00-2.34-1.188c-1.644-.036-3.036 1.368-3 3.012zm1.56 5.064c.276.084.552.12.804.12.876 0 1.44-.564 1.44-1.296 0-.54-.336-.972-.852-1.212l-.228.18c.324.276.516.564.516.96 0 .576-.396.864-.96.864a3.09 3.09 0 01-.72-.084zM363.288 22.396c-.036 1.644 1.356 3.06 2.988 3.024 1.644.036 3.048-1.38 3.012-3.024a3.004 3.004 0 00-3-3.012c-1.644-.036-3.036 1.344-3 3.012zm5.376.012c0 1.368-1.056 2.448-2.388 2.448-1.332 0-2.364-1.08-2.364-2.448 0-1.392 1.032-2.46 2.376-2.46 1.32 0 2.376 1.068 2.376 2.46zM370.512 24.22c.492.72 1.26 1.2 2.22 1.2.54 0 .996-.144 1.368-.42.372-.276.564-.672.564-1.188 0-.804-.528-1.236-1.5-1.668l-.54-.24c-.78-.336-1.092-.552-1.092-1.044 0-.588.504-.912 1.176-.912.564 0 1.068.252 1.512.744l.396-.384a2.29 2.29 0 00-1.872-.924c-.516 0-.948.132-1.308.408-.36.276-.54.636-.54 1.104 0 .756.516 1.152 1.428 1.548l.528.228c.816.372 1.128.528 1.188 1.164 0 .66-.564 1.02-1.296 1.02-.732 0-1.284-.36-1.812-1.032l-.42.396zM384.924 22.54c.036-.132.048-.324.048-.576 0-1.548-1.164-2.58-2.592-2.58-1.596-.036-2.964 1.38-2.928 3.024-.036 1.644 1.356 3.048 3 3.012.924 0 1.752-.408 2.328-1.08l-.384-.396c-.516.612-1.164.912-1.932.912-1.308 0-2.316-.96-2.388-2.316zM380.1 22c.084-.6.336-1.092.756-1.476.42-.396.912-.588 1.5-.588 1.116 0 2.04.804 1.992 2.064zM395.94 22.396c0-1.668-1.26-3.012-2.88-3.012-1.008 0-1.932.504-2.364 1.284v-1.164h-.576v7.956h.6v-3.276c.444.768 1.368 1.236 2.34 1.236 1.62 0 2.88-1.332 2.88-3.024zm-.624.012c0 1.392-.984 2.448-2.316 2.448-1.2 0-2.28-.792-2.28-2.46 0-1.656 1.08-2.448 2.28-2.448 1.332 0 2.316 1.08 2.316 2.46zM400.596 19.504c-.06 0-.216-.036-.372-.036-.804 0-1.5.348-1.92 1.02v-.984h-.576V25.3h.6v-3.408c0-1.164.972-1.86 1.968-1.86h.3v-.528zM401.364 22.396c-.036 1.644 1.356 3.06 2.988 3.024 1.644.036 3.048-1.38 3.012-3.024a3.004 3.004 0 00-3-3.012c-1.644-.036-3.036 1.344-3 3.012zm5.376.012c0 1.368-1.056 2.448-2.388 2.448-1.332 0-2.364-1.08-2.364-2.448 0-1.392 1.032-2.46 2.376-2.46 1.32 0 2.376 1.068 2.376 2.46zM417.408 21.64c0-1.356-.768-2.256-2.064-2.256-.924 0-1.62.456-2.004 1.128-.3-.708-.924-1.128-1.824-1.128-.768 0-1.404.312-1.788.876v-.756h-.576V25.3h.6v-3.612c0-1.008.684-1.74 1.68-1.74.96 0 1.548.696 1.548 1.74V25.3h.6v-3.708c0-.9.708-1.644 1.68-1.644.96 0 1.536.696 1.536 1.74V25.3h.612v-3.66zM419.1 22.396c-.036 1.644 1.356 3.06 2.988 3.024 1.644.036 3.048-1.38 3.012-3.024a3.004 3.004 0 00-3-3.012c-1.644-.036-3.036 1.344-3 3.012zm5.376.012c0 1.368-1.056 2.448-2.388 2.448-1.332 0-2.364-1.08-2.364-2.448 0-1.392 1.032-2.46 2.376-2.46 1.32 0 2.376 1.068 2.376 2.46zM426.444 22.396c-.036 1.644 1.356 3.06 2.988 3.024.972 0 1.812-.456 2.352-1.188l-.432-.348c-.504.648-1.14.972-1.92.972-1.332 0-2.364-1.08-2.364-2.46 0-1.356 1.032-2.448 2.376-2.448.78 0 1.416.324 1.908.972l.432-.348a2.865 2.865 0 00-2.34-1.188c-1.644-.036-3.036 1.368-3 3.012zm1.56 5.064c.276.084.552.12.804.12.876 0 1.44-.564 1.44-1.296 0-.54-.336-.972-.852-1.212l-.228.18c.324.276.516.564.516.96 0 .576-.396.864-.96.864a3.09 3.09 0 01-.72-.084zM432.948 22.396c-.036 1.644 1.356 3.06 2.988 3.024 1.644.036 3.048-1.38 3.012-3.024a3.004 3.004 0 00-3-3.012c-1.644-.036-3.036 1.344-3 3.012zm5.376.012c0 1.368-1.056 2.448-2.388 2.448-1.332 0-2.364-1.08-2.364-2.448 0-1.392 1.032-2.46 2.376-2.46 1.32 0 2.376 1.068 2.376 2.46zm-2.328-4.704c.24.24.504.36.78.36.564 0 .864-.492.864-1.08 0-.12 0-.204-.012-.264h-.528v.228c0 .324-.132.552-.384.552-.18 0-.312-.084-.516-.288l-.3-.3c-.24-.24-.492-.36-.768-.36-.564 0-.864.468-.864 1.08 0 .108 0 .204.012.264h.528v-.24c0-.324.12-.54.372-.54.192 0 .312.084.516.288zM445.764 22.54c.036-.132.048-.324.048-.576 0-1.548-1.164-2.58-2.592-2.58-1.596-.036-2.964 1.38-2.928 3.024-.036 1.644 1.356 3.048 3 3.012.924 0 1.752-.408 2.328-1.08l-.384-.396c-.516.612-1.164.912-1.932.912-1.308 0-2.316-.96-2.388-2.316zM440.94 22c.084-.6.336-1.092.756-1.476.42-.396.912-.588 1.5-.588 1.116 0 2.04.804 1.992 2.064zM447.036 24.22c.492.72 1.26 1.2 2.22 1.2.54 0 .996-.144 1.368-.42.372-.276.564-.672.564-1.188 0-.804-.528-1.236-1.5-1.668l-.54-.24c-.78-.336-1.092-.552-1.092-1.044 0-.588.504-.912 1.176-.912.564 0 1.068.252 1.512.744l.396-.384a2.29 2.29 0 00-1.872-.924c-.516 0-.948.132-1.308.408-.36.276-.54.636-.54 1.104 0 .756.516 1.152 1.428 1.548l.528.228c.816.372 1.128.528 1.188 1.164 0 .66-.564 1.02-1.296 1.02-.732 0-1.284-.36-1.812-1.032l-.42.396zM453.144 27.46h.516l.432-3.06h-.744zM465.6 22.396c0-1.668-1.26-3.012-2.88-3.012-1.008 0-1.932.504-2.364 1.284v-1.164h-.576v7.956h.6v-3.276c.444.768 1.368 1.236 2.34 1.236 1.62 0 2.88-1.332 2.88-3.024zm-.624.012c0 1.392-.984 2.448-2.316 2.448-1.2 0-2.28-.792-2.28-2.46 0-1.656 1.08-2.448 2.28-2.448 1.332 0 2.316 1.08 2.316 2.46zM466.944 22.396c-.036 1.644 1.356 3.06 2.988 3.024 1.644.036 3.048-1.38 3.012-3.024a3.004 3.004 0 00-3-3.012c-1.644-.036-3.036 1.344-3 3.012zm5.376.012c0 1.368-1.056 2.448-2.388 2.448-1.332 0-2.364-1.08-2.364-2.448 0-1.392 1.032-2.46 2.376-2.46 1.32 0 2.376 1.068 2.376 2.46zM479.508 16.3v4.332c-.444-.768-1.344-1.248-2.34-1.248-1.656 0-2.88 1.332-2.88 3.024 0 1.668 1.26 3.012 2.88 3.012 1.008 0 1.932-.492 2.364-1.296V25.3h.576v-9zm0 6.108c0 1.656-1.08 2.448-2.28 2.448-1.332 0-2.316-1.08-2.316-2.46 0-1.392.984-2.448 2.316-2.448 1.2 0 2.28.792 2.28 2.46zM487.368 22.54c.036-.132.048-.324.048-.576 0-1.548-1.164-2.58-2.592-2.58-1.596-.036-2.964 1.38-2.928 3.024-.036 1.644 1.356 3.048 3 3.012.924 0 1.752-.408 2.328-1.08l-.384-.396c-.516.612-1.164.912-1.932.912-1.308 0-2.316-.96-2.388-2.316zm-4.824-.54c.084-.6.336-1.092.756-1.476.42-.396.912-.588 1.5-.588 1.116 0 2.04.804 1.992 2.064zM493.752 21.64c0-1.344-.792-2.256-2.124-2.256-.804 0-1.452.324-1.848.9v-.78h-.576V25.3h.6v-3.624c0-.492.156-.912.48-1.236.324-.324.744-.492 1.248-.492.996 0 1.62.708 1.62 1.728V25.3h.6v-3.66zM500.676 16.3v4.332c-.444-.768-1.344-1.248-2.34-1.248-1.656 0-2.88 1.332-2.88 3.024 0 1.668 1.26 3.012 2.88 3.012 1.008 0 1.932-.492 2.364-1.296V25.3h.576v-9zm0 6.108c0 1.656-1.08 2.448-2.28 2.448-1.332 0-2.316-1.08-2.316-2.46 0-1.392.984-2.448 2.316-2.448 1.2 0 2.28.792 2.28 2.46zM503.064 22.396c-.036 1.644 1.356 3.06 2.988 3.024 1.644.036 3.048-1.38 3.012-3.024a3.004 3.004 0 00-3-3.012c-1.644-.036-3.036 1.344-3 3.012zm5.376.012c0 1.368-1.056 2.448-2.388 2.448-1.332 0-2.364-1.08-2.364-2.448 0-1.392 1.032-2.46 2.376-2.46 1.32 0 2.376 1.068 2.376 2.46zM514.212 25.3h.6v-9h-.6zM522.072 22.54c.036-.132.048-.324.048-.576 0-1.548-1.164-2.58-2.592-2.58-1.596-.036-2.964 1.38-2.928 3.024-.036 1.644 1.356 3.048 3 3.012.924 0 1.752-.408 2.328-1.08l-.384-.396c-.516.612-1.164.912-1.932.912-1.308 0-2.316-.96-2.388-2.316zm-4.824-.54c.084-.6.336-1.092.756-1.476.42-.396.912-.588 1.5-.588 1.116 0 2.04.804 1.992 2.064zM527.844 19.504l-2.124 4.884-2.136-4.884h-.648l2.664 5.916h.252l2.64-5.916zM533.868 21.664c0-1.476-.864-2.28-2.172-2.28-.924 0-1.656.396-2.22 1.2l.42.336c.492-.636 1.032-.972 1.764-.972.972 0 1.596.588 1.596 1.692v.66h-2.016c-1.212 0-2.016.6-2.016 1.548 0 .492.192.888.576 1.164.384.276.852.408 1.416.408.912 0 1.656-.372 2.076-1.032v.912h.576zm-.612 1.476c0 .996-.912 1.752-1.98 1.752-.78 0-1.428-.372-1.428-1.08 0-.636.504-.996 1.452-.996h1.956zM538.872 19.504c-.06 0-.216-.036-.372-.036-.804 0-1.5.348-1.92 1.02v-.984h-.576V25.3h.6v-3.408c0-1.164.972-1.86 1.968-1.86h.3v-.528z" stroke-width=".012"/></g><g fill="#fff" stroke="#000"><path d="M212.856 36.796c-.036 1.644 1.356 3.06 2.988 3.024 1.644.036 3.048-1.38 3.012-3.024a3.004 3.004 0 00-3-3.012c-1.644-.036-3.036 1.344-3 3.012zm5.376.012c0 1.368-1.056 2.448-2.388 2.448-1.332 0-2.364-1.08-2.364-2.448 0-1.392 1.032-2.46 2.376-2.46 1.32 0 2.376 1.068 2.376 2.46zM223.92 37.504c0 1.404.996 2.316 2.28 2.316 1.272 0 2.268-.912 2.268-2.316v-3.6h-.6v3.624c0 1.056-.72 1.728-1.668 1.728-.96 0-1.68-.672-1.68-1.728v-3.624h-.6v3.6zM230.052 38.62c.492.72 1.26 1.2 2.22 1.2.54 0 .996-.144 1.368-.42.372-.276.564-.672.564-1.188 0-.804-.528-1.236-1.5-1.668l-.54-.24c-.78-.336-1.092-.552-1.092-1.044 0-.588.504-.912 1.176-.912.564 0 1.068.252 1.512.744l.396-.384a2.29 2.29 0 00-1.872-.924c-.516 0-.948.132-1.308.408-.36.276-.54.636-.54 1.104 0 .756.516 1.152 1.428 1.548l.528.228c.816.372 1.128.528 1.188 1.164 0 .66-.564 1.02-1.296 1.02-.732 0-1.284-.36-1.812-1.032l-.42.396zM235.992 37.504c0 1.404.996 2.316 2.28 2.316 1.272 0 2.268-.912 2.268-2.316v-3.6h-.6v3.624c0 1.056-.72 1.728-1.668 1.728-.96 0-1.68-.672-1.68-1.728v-3.624h-.6v3.6zM246.804 36.064c0-1.476-.864-2.28-2.172-2.28-.924 0-1.656.396-2.22 1.2l.42.336c.492-.636 1.032-.972 1.764-.972.972 0 1.596.588 1.596 1.692v.66h-2.016c-1.212 0-2.016.6-2.016 1.548 0 .492.192.888.576 1.164.384.276.852.408 1.416.408.912 0 1.656-.372 2.076-1.032v.912h.576zm-.612 1.476c0 .996-.912 1.752-1.98 1.752-.78 0-1.428-.372-1.428-1.08 0-.636.504-.996 1.452-.996h1.956zm-1.8-4.608h.48l1.356-2.484v-.108h-.744zM251.808 33.904c-.06 0-.216-.036-.372-.036-.804 0-1.5.348-1.92 1.02v-.984h-.576V39.7h.6v-3.408c0-1.164.972-1.86 1.968-1.86h.3v-.528zM253.14 39.7h.6v-5.796h-.6zm-.228-8.028c0 .288.228.528.528.528.288 0 .528-.24.528-.528a.533.533 0 00-.528-.528c-.3 0-.528.24-.528.528zM255.528 36.796c-.036 1.644 1.356 3.06 2.988 3.024 1.644.036 3.048-1.38 3.012-3.024a3.004 3.004 0 00-3-3.012c-1.644-.036-3.036 1.344-3 3.012zm5.376.012c0 1.368-1.056 2.448-2.388 2.448-1.332 0-2.364-1.08-2.364-2.448 0-1.392 1.032-2.46 2.376-2.46 1.32 0 2.376 1.068 2.376 2.46zM270.792 36.064c0-1.476-.864-2.28-2.172-2.28-.924 0-1.656.396-2.22 1.2l.42.336c.492-.636 1.032-.972 1.764-.972.972 0 1.596.588 1.596 1.692v.66h-2.016c-1.212 0-2.016.6-2.016 1.548 0 .492.192.888.576 1.164.384.276.852.408 1.416.408.912 0 1.656-.372 2.076-1.032v.912h.576zm-.612 1.476c0 .996-.912 1.752-1.98 1.752-.78 0-1.428-.372-1.428-1.08 0-.636.504-.996 1.452-.996h1.956zM275.832 39.172c-.3.06-.576.096-.804.096-.78 0-1.26-.336-1.26-1.212v-3.6h1.872v-.552h-1.872V32.26h-.612v1.644h-1.008v.552h1.008v3.624c0 1.2.684 1.74 1.776 1.74.3 0 .6-.036.9-.12v-.528zM282.192 36.94c.036-.132.048-.324.048-.576 0-1.548-1.164-2.58-2.592-2.58-1.596-.036-2.964 1.38-2.928 3.024-.036 1.644 1.356 3.048 3 3.012.924 0 1.752-.408 2.328-1.08l-.384-.396c-.516.612-1.164.912-1.932.912-1.308 0-2.316-.96-2.388-2.316zm-4.824-.54c.084-.6.336-1.092.756-1.476.42-.396.912-.588 1.5-.588 1.116 0 2.04.804 1.992 2.064zm1.968-3.468h.48l1.356-2.484v-.108h-.744zM286.944 36.796c-.036 1.644 1.356 3.06 2.988 3.024 1.644.036 3.048-1.38 3.012-3.024a3.004 3.004 0 00-3-3.012c-1.644-.036-3.036 1.344-3 3.012zm5.376.012c0 1.368-1.056 2.448-2.388 2.448-1.332 0-2.364-1.08-2.364-2.448 0-1.392 1.032-2.46 2.376-2.46 1.32 0 2.376 1.068 2.376 2.46zM297.528 38.62c.492.72 1.26 1.2 2.22 1.2.54 0 .996-.144 1.368-.42.372-.276.564-.672.564-1.188 0-.804-.528-1.236-1.5-1.668l-.54-.24c-.78-.336-1.092-.552-1.092-1.044 0-.588.504-.912 1.176-.912.564 0 1.068.252 1.512.744l.396-.384a2.29 2.29 0 00-1.872-.924c-.516 0-.948.132-1.308.408-.36.276-.54.636-.54 1.104 0 .756.516 1.152 1.428 1.548l.528.228c.816.372 1.128.528 1.188 1.164 0 .66-.564 1.02-1.296 1.02-.732 0-1.284-.36-1.812-1.032l-.42.396zM303.552 39.7h.6v-5.796h-.6zm-.228-8.028c0 .288.228.528.528.528.288 0 .528-.24.528-.528a.533.533 0 00-.528-.528c-.3 0-.528.24-.528.528zM309.288 39.172c-.3.06-.576.096-.804.096-.78 0-1.26-.336-1.26-1.212v-3.6h1.872v-.552h-1.872V32.26h-.612v1.644h-1.008v.552h1.008v3.624c0 1.2.684 1.74 1.776 1.74.3 0 .6-.036.9-.12v-.528zM315.648 36.94c.036-.132.048-.324.048-.576 0-1.548-1.164-2.58-2.592-2.58-1.596-.036-2.964 1.38-2.928 3.024-.036 1.644 1.356 3.048 3 3.012.924 0 1.752-.408 2.328-1.08l-.384-.396c-.516.612-1.164.912-1.932.912-1.308 0-2.316-.96-2.388-2.316zm-4.824-.54c.084-.6.336-1.092.756-1.476.42-.396.912-.588 1.5-.588 1.116 0 2.04.804 1.992 2.064zM323.76 36.796c-.036 1.644 1.356 3.06 2.988 3.024 1.644.036 3.048-1.38 3.012-3.024a3.004 3.004 0 00-3-3.012c-1.644-.036-3.036 1.344-3 3.012zm5.376.012c0 1.368-1.056 2.448-2.388 2.448-1.332 0-2.364-1.08-2.364-2.448 0-1.392 1.032-2.46 2.376-2.46 1.32 0 2.376 1.068 2.376 2.46zM331.464 37.504c0 1.404.996 2.316 2.28 2.316 1.272 0 2.268-.912 2.268-2.316v-3.6h-.6v3.624c0 1.056-.72 1.728-1.668 1.728-.96 0-1.68-.672-1.68-1.728v-3.624h-.6v3.6zM346.296 30.7v4.332c-.444-.768-1.344-1.248-2.34-1.248-1.656 0-2.88 1.332-2.88 3.024 0 1.668 1.26 3.012 2.88 3.012 1.008 0 1.932-.492 2.364-1.296V39.7h.576v-9zm0 6.108c0 1.656-1.08 2.448-2.28 2.448-1.332 0-2.316-1.08-2.316-2.46 0-1.392.984-2.448 2.316-2.448 1.2 0 2.28.792 2.28 2.46zM349.128 39.7h.6v-5.796h-.6zm-.228-8.028c0 .288.228.528.528.528.288 0 .528-.24.528-.528a.533.533 0 00-.528-.528c-.3 0-.528.24-.528.528zM354.828 33.904c-.06 0-.216-.036-.372-.036-.804 0-1.5.348-1.92 1.02v-.984h-.576V39.7h.6v-3.408c0-1.164.972-1.86 1.968-1.86h.3v-.528zM361.068 36.94c.036-.132.048-.324.048-.576 0-1.548-1.164-2.58-2.592-2.58-1.596-.036-2.964 1.38-2.928 3.024-.036 1.644 1.356 3.048 3 3.012.924 0 1.752-.408 2.328-1.08l-.384-.396c-.516.612-1.164.912-1.932.912-1.308 0-2.316-.96-2.388-2.316zm-4.824-.54c.084-.6.336-1.092.756-1.476.42-.396.912-.588 1.5-.588 1.116 0 2.04.804 1.992 2.064zM362.46 36.796c-.036 1.644 1.356 3.06 2.988 3.024.972 0 1.812-.456 2.352-1.188l-.432-.348c-.504.648-1.14.972-1.92.972-1.332 0-2.364-1.08-2.364-2.46 0-1.356 1.032-2.448 2.376-2.448.78 0 1.416.324 1.908.972l.432-.348a2.865 2.865 0 00-2.34-1.188c-1.644-.036-3.036 1.368-3 3.012zM369.528 39.7h.6v-5.796h-.6zm-.228-8.028c0 .288.228.528.528.528.288 0 .528-.24.528-.528a.533.533 0 00-.528-.528c-.3 0-.528.24-.528.528zM371.916 36.796c-.036 1.644 1.356 3.06 2.988 3.024 1.644.036 3.048-1.38 3.012-3.024a3.004 3.004 0 00-3-3.012c-1.644-.036-3.036 1.344-3 3.012zm5.376.012c0 1.368-1.056 2.448-2.388 2.448-1.332 0-2.364-1.08-2.364-2.448 0-1.392 1.032-2.46 2.376-2.46 1.32 0 2.376 1.068 2.376 2.46zM384.252 36.04c0-1.344-.792-2.256-2.124-2.256-.804 0-1.452.324-1.848.9v-.78h-.576V39.7h.6v-3.624c0-.492.156-.912.48-1.236.324-.324.744-.492 1.248-.492.996 0 1.62.708 1.62 1.728V39.7h.6v-3.66zM390.516 36.064c0-1.476-.864-2.28-2.172-2.28-.924 0-1.656.396-2.22 1.2l.42.336c.492-.636 1.032-.972 1.764-.972.972 0 1.596.588 1.596 1.692v.66h-2.016c-1.212 0-2.016.6-2.016 1.548 0 .492.192.888.576 1.164.384.276.852.408 1.416.408.912 0 1.656-.372 2.076-1.032v.912h.576zm-.612 1.476c0 .996-.912 1.752-1.98 1.752-.78 0-1.428-.372-1.428-1.08 0-.636.504-.996 1.452-.996h1.956zm-1.8-4.608h.48l1.356-2.484v-.108h-.744zM392.22 36.232h2.736v-.528h-2.736zM396.768 39.7h.6v-9h-.6zM399.156 36.796c-.036 1.644 1.356 3.06 2.988 3.024 1.644.036 3.048-1.38 3.012-3.024a3.004 3.004 0 00-3-3.012c-1.644-.036-3.036 1.344-3 3.012zm5.376.012c0 1.368-1.056 2.448-2.388 2.448-1.332 0-2.364-1.08-2.364-2.448 0-1.392 1.032-2.46 2.376-2.46 1.32 0 2.376 1.068 2.376 2.46zM414.42 36.064c0-1.476-.864-2.28-2.172-2.28-.924 0-1.656.396-2.22 1.2l.42.336c.492-.636 1.032-.972 1.764-.972.972 0 1.596.588 1.596 1.692v.66h-2.016c-1.212 0-2.016.6-2.016 1.548 0 .492.192.888.576 1.164.384.276.852.408 1.416.408.912 0 1.656-.372 2.076-1.032v.912h.576zm-.612 1.476c0 .996-.912 1.752-1.98 1.752-.78 0-1.428-.372-1.428-1.08 0-.636.504-.996 1.452-.996h1.956zM419.46 39.172c-.3.06-.576.096-.804.096-.78 0-1.26-.336-1.26-1.212v-3.6h1.872v-.552h-1.872V32.26h-.612v1.644h-1.008v.552h1.008v3.624c0 1.2.684 1.74 1.776 1.74.3 0 .6-.036.9-.12v-.528zM425.82 36.94c.036-.132.048-.324.048-.576 0-1.548-1.164-2.58-2.592-2.58-1.596-.036-2.964 1.38-2.928 3.024-.036 1.644 1.356 3.048 3 3.012.924 0 1.752-.408 2.328-1.08l-.384-.396c-.516.612-1.164.912-1.932.912-1.308 0-2.316-.96-2.388-2.316zm-4.824-.54c.084-.6.336-1.092.756-1.476.42-.396.912-.588 1.5-.588 1.116 0 2.04.804 1.992 2.064zm1.968-3.468h.48l1.356-2.484v-.108h-.744zM435.132 36.064c0-1.476-.864-2.28-2.172-2.28-.924 0-1.656.396-2.22 1.2l.42.336c.492-.636 1.032-.972 1.764-.972.972 0 1.596.588 1.596 1.692v.66h-2.016c-1.212 0-2.016.6-2.016 1.548 0 .492.192.888.576 1.164.384.276.852.408 1.416.408.912 0 1.656-.372 2.076-1.032v.912h.576zm-.612 1.476c0 .996-.912 1.752-1.98 1.752-.78 0-1.428-.372-1.428-1.08 0-.636.504-.996 1.452-.996h1.956zM440.628 39.7h.6v-9h-.6zM443.016 36.796c-.036 1.644 1.356 3.06 2.988 3.024 1.644.036 3.048-1.38 3.012-3.024a3.004 3.004 0 00-3-3.012c-1.644-.036-3.036 1.344-3 3.012zm5.376.012c0 1.368-1.056 2.448-2.388 2.448-1.332 0-2.364-1.08-2.364-2.448 0-1.392 1.032-2.46 2.376-2.46 1.32 0 2.376 1.068 2.376 2.46zM448.992 41.908c.204.048.42.072.66.072 1.068 0 1.752-.54 1.752-1.74v-6.336h-.6v6.312c0 .9-.456 1.212-1.26 1.212a2.86 2.86 0 01-.552-.048zm1.584-10.236c0 .288.228.528.528.528.288 0 .528-.24.528-.528a.533.533 0 00-.528-.528c-.3 0-.528.24-.528.528zM457.752 36.064c0-1.476-.864-2.28-2.172-2.28-.924 0-1.656.396-2.22 1.2l.42.336c.492-.636 1.032-.972 1.764-.972.972 0 1.596.588 1.596 1.692v.66h-2.016c-1.212 0-2.016.6-2.016 1.548 0 .492.192.888.576 1.164.384.276.852.408 1.416.408.912 0 1.656-.372 2.076-1.032v.912h.576zm-.612 1.476c0 .996-.912 1.752-1.98 1.752-.78 0-1.428-.372-1.428-1.08 0-.636.504-.996 1.452-.996h1.956zM471.504 36.04c0-1.356-.768-2.256-2.064-2.256-.924 0-1.62.456-2.004 1.128-.3-.708-.924-1.128-1.824-1.128-.768 0-1.404.312-1.788.876v-.756h-.576V39.7h.6v-3.612c0-1.008.684-1.74 1.68-1.74.96 0 1.548.696 1.548 1.74V39.7h.6v-3.708c0-.9.708-1.644 1.68-1.644.96 0 1.536.696 1.536 1.74V39.7h.612v-3.66zM477.756 36.064c0-1.476-.864-2.28-2.172-2.28-.924 0-1.656.396-2.22 1.2l.42.336c.492-.636 1.032-.972 1.764-.972.972 0 1.596.588 1.596 1.692v.66h-2.016c-1.212 0-2.016.6-2.016 1.548 0 .492.192.888.576 1.164.384.276.852.408 1.416.408.912 0 1.656-.372 2.076-1.032v.912h.576zm-.612 1.476c0 .996-.912 1.752-1.98 1.752-.78 0-1.428-.372-1.428-1.08 0-.636.504-.996 1.452-.996h1.956zM479.892 39.7h.6v-5.796h-.6zm-.228-8.028c0 .288.228.528.528.528.288 0 .528-.24.528-.528a.533.533 0 00-.528-.528c-.3 0-.528.24-.528.528zM482.16 38.62c.492.72 1.26 1.2 2.22 1.2.54 0 .996-.144 1.368-.42.372-.276.564-.672.564-1.188 0-.804-.528-1.236-1.5-1.668l-.54-.24c-.78-.336-1.092-.552-1.092-1.044 0-.588.504-.912 1.176-.912.564 0 1.068.252 1.512.744l.396-.384a2.29 2.29 0 00-1.872-.924c-.516 0-.948.132-1.308.408-.36.276-.54.636-.54 1.104 0 .756.516 1.152 1.428 1.548l.528.228c.816.372 1.128.528 1.188 1.164 0 .66-.564 1.02-1.296 1.02-.732 0-1.284-.36-1.812-1.032l-.42.396zM497.364 36.796c0-1.668-1.26-3.012-2.88-3.012-1.008 0-1.932.504-2.364 1.284v-1.164h-.576v7.956h.6v-3.276c.444.768 1.368 1.236 2.34 1.236 1.62 0 2.88-1.332 2.88-3.024zm-.624.012c0 1.392-.984 2.448-2.316 2.448-1.2 0-2.28-.792-2.28-2.46 0-1.656 1.08-2.448 2.28-2.448 1.332 0 2.316 1.08 2.316 2.46zM502.02 33.904c-.06 0-.216-.036-.372-.036-.804 0-1.5.348-1.92 1.02v-.984h-.576V39.7h.6v-3.408c0-1.164.972-1.86 1.968-1.86h.3v-.528zM502.788 36.796c-.036 1.644 1.356 3.06 2.988 3.024 1.644.036 3.048-1.38 3.012-3.024a3.004 3.004 0 00-3-3.012c-1.644-.036-3.036 1.344-3 3.012zm5.376.012c0 1.368-1.056 2.448-2.388 2.448-1.332 0-2.364-1.08-2.364-2.448 0-1.392 1.032-2.46 2.376-2.46 1.32 0 2.376 1.068 2.376 2.46zm-2.604-3.876h.48l1.356-2.484v-.108h-.744zM514.668 39.7l-2.22-3.024 2.04-2.772h-.72l-1.68 2.328-1.656-2.328h-.72l2.016 2.748-2.196 3.048h.72l1.848-2.592 1.848 2.592zM516.096 39.7h.6v-5.796h-.6zm-.228-8.028c0 .288.228.528.528.528.288 0 .528-.24.528-.528a.533.533 0 00-.528-.528c-.3 0-.528.24-.528.528zM527.184 36.04c0-1.356-.768-2.256-2.064-2.256-.924 0-1.62.456-2.004 1.128-.3-.708-.924-1.128-1.824-1.128-.768 0-1.404.312-1.788.876v-.756h-.576V39.7h.6v-3.612c0-1.008.684-1.74 1.68-1.74.96 0 1.548.696 1.548 1.74V39.7h.6v-3.708c0-.9.708-1.644 1.68-1.644.96 0 1.536.696 1.536 1.74V39.7h.612v-3.66zM533.436 36.064c0-1.476-.864-2.28-2.172-2.28-.924 0-1.656.396-2.22 1.2l.42.336c.492-.636 1.032-.972 1.764-.972.972 0 1.596.588 1.596 1.692v.66h-2.016c-1.212 0-2.016.6-2.016 1.548 0 .492.192.888.576 1.164.384.276.852.408 1.416.408.912 0 1.656-.372 2.076-1.032v.912h.576zm-.612 1.476c0 .996-.912 1.752-1.98 1.752-.78 0-1.428-.372-1.428-1.08 0-.636.504-.996 1.452-.996h1.956zM535.548 39.244c0 .336.276.576.576.576.336 0 .6-.24.6-.576 0-.372-.264-.6-.6-.6-.324 0-.576.252-.576.6z" stroke-width=".012"/></g></svg>